<svg width="105" height="22" viewBox="0 0 105 22" fill="none" xmlns="http://www.w3.org/2000/svg">
<g id="Group">
<path id="Vector" d="M12.9381 19.689C11.6309 20.8276 9.90993 21.5 8.00795 21.5C3.72995 21.5 0.494873 18.0815 0.494873 13.7588C0.494873 9.43623 3.73282 6.01769 8.00795 6.01769C9.90993 6.01769 11.6309 6.6901 12.9381 7.85692V2.97208C12.9381 1.29389 13.6478 0.5 15.1763 0.5H16.2048V21.4717L12.9381 21.5V19.689ZM12.9381 13.7588V13.5554C12.8203 10.9562 10.858 8.99832 8.36421 8.99832C5.87039 8.99832 3.79029 11.0438 3.79029 13.7588C3.79029 16.4739 5.81005 18.5194 8.36421 18.5194C10.9184 18.5194 12.9381 16.4739 12.9381 13.7588Z" fill="white"/>
<path id="Vector_2" d="M25.8181 18.5194C23.2352 18.5194 21.2442 16.3863 21.2442 13.7589C21.2442 11.1314 23.2639 8.99833 25.8181 8.99833C26.4703 8.99833 27.2747 9.17349 27.7775 9.52382C27.292 10.0832 25.8439 11.5382 25.3584 12.0976C24.6028 12.9678 23.7207 13.7278 24.0655 14.9963C24.1057 15.1432 24.3241 15.5501 24.5855 15.8156C24.847 16.0812 25.4503 16.5417 25.4503 16.5417L25.6859 16.2903C25.6859 16.2903 25.9359 15.9993 26.0278 15.8891C27.3897 14.2985 29.7111 11.8151 31.0729 10.2245C31.4292 9.81482 31.547 9.46449 31.547 9.05483C31.547 8.58867 31.3085 8.15076 30.9523 7.82868C29.9409 6.9246 28.1309 6.0177 25.8152 6.0177C21.3016 6.0177 17.943 9.43624 17.943 13.7589C17.943 18.0815 21.3303 21.5 25.8152 21.5C28.3406 21.5 30.3891 20.4179 31.5183 19.076L28.9641 17.2056C28.2516 17.9346 27.2115 18.5194 25.8152 18.5194H25.8181Z" fill="white"/>
<path id="Vector_3" d="M33.6214 7.65633V6.04877H36.8795L36.8881 7.65633V15.8043L44.3466 7.18734C45.1108 6.43582 45.5475 6.04877 46.9611 6.04877H49.0986L47.076 8.47282L36.4715 20.9152C36.1152 21.3248 35.7877 21.4689 35.2533 21.4689C34.3311 21.4689 33.6185 20.74 33.6185 19.8331V7.65633H33.6214Z" fill="white"/>
<path id="Vector_4" d="M47.3115 7.94733C47.3115 6.89634 48.1734 6.04877 49.2422 6.04877C50.311 6.04877 51.1729 6.89634 51.1729 7.94733C51.1729 8.99832 50.311 9.84589 49.2422 9.84589C48.1734 9.84589 47.3115 8.97006 47.3115 7.94733ZM47.6074 13.1458V11.1088H50.8741V19.6749C50.8741 20.579 50.1616 21.3107 49.2394 21.3107C48.3171 21.3107 47.6046 20.5818 47.6046 19.6749V13.1458H47.6074Z" fill="white"/>
<path id="Vector_5" d="M53.1726 9.29498V6.3087H54.6867L55.7555 6.31153V4.12197C55.7555 3.21789 55.7498 2.5144 55.7498 2.5144C58.2781 2.5144 59.0222 3.56257 59.0222 5.03169V6.31153H62.4986C63.3289 6.31153 64.0127 6.95285 64.0127 7.80043C64.0127 8.648 63.3289 9.28933 62.4986 9.28933H59.0222V14.5753C59.0222 17.1463 60.4788 18.4601 62.4986 18.4601L64.0127 18.4742V21.4689H62.4986C58.6659 21.4689 55.7555 18.8104 55.7555 14.5753V9.28933H54.6867L53.1726 9.29498Z" fill="white"/>
<path id="Vector_6" d="M66.1445 12.8548C66.1445 8.70731 68.9659 6.02051 72.8273 6.02051C73.6576 6.02051 74.3414 6.66184 74.3414 7.50941C74.3414 8.35698 73.6576 8.99831 72.8273 8.99831C70.8679 8.99831 69.4112 10.2838 69.4112 12.8548V19.8359L69.4227 21.4717H66.1445V12.8548Z" fill="white"/>
<path id="Vector_7" d="M86.46 19.689C85.1527 20.8276 83.4318 21.5 81.5298 21.5C77.2518 21.5 74.0167 18.0815 74.0167 13.7589C74.0167 9.43624 77.2547 6.0177 81.5298 6.0177C83.4318 6.0177 85.1527 6.69011 86.46 7.85693V7.65351C86.46 6.74944 87.1725 6.04595 88.0948 6.04595H89.7296V21.4972H86.4629V19.6862L86.46 19.689ZM86.46 13.7589V13.5554C86.3422 10.9562 84.3799 8.99833 81.8861 8.99833C79.3922 8.99833 77.3121 11.0438 77.3121 13.7589C77.3121 16.4739 79.3319 18.5194 81.8861 18.5194C84.4402 18.5194 86.46 16.4739 86.46 13.7589Z" fill="white"/>
<g id="Group_2">
<path id="Vector_8" d="M98.2569 13.5272L102.564 8.47564L103.454 7.42182C103.454 7.42182 103.305 7.28621 103.084 7.06584C102.138 6.13634 100.438 6.38214 99.4894 7.4642C98.6505 8.42478 95.1367 12.5638 95.1367 12.5638C94.8695 12.8548 94.6914 13.3237 94.6914 13.6741C94.6914 14.1402 94.8983 14.5499 95.1367 14.872L100.305 20.8897C100.601 21.2683 101.078 21.4746 101.524 21.4746H105L102.802 18.816L98.2569 13.53V13.5272Z" fill="white"/>
<path id="Vector_9" d="M94.6167 0.5H92.9819V21.4717H96.2486V2.10756C96.2486 1.20066 95.5361 0.5 94.6138 0.5H94.6167Z" fill="white"/>
</g>
</g>
</svg>
