<svg xmlns="http://www.w3.org/2000/svg" width="47" height="22" fill="none"><path fill="#fff" d="M33.385 7.831a10.35 10.35 0 0 0-1.879-3.433l-4.12 4.052a4.789 4.789 0 0 1-.704 5.97c-1.646 1.619-4.174 1.848-6.07.692l-4.12 4.051c.815.65 1.718 1.176 2.694 1.566 1.279.511 2.632.768 4.017.768 1.385 0 2.738-.26 4.017-.768a10.644 10.644 0 0 0 3.533-2.306L40.927 8.42c-5.33 5.24-7.542-.588-7.542-.588Z"/><path fill="#8A9DAD" d="M46.26 3.178c-2.247-2.209-5.893-2.209-8.14 0l-4.732 4.653s2.212 5.829 7.542.588l5.33-5.24Z"/><path fill="#fff" d="M12.874 14.168a10.351 10.351 0 0 0 1.879 3.433l4.12-4.051a4.789 4.789 0 0 1 .704-5.97c1.646-1.619 4.175-1.848 6.07-.692l4.12-4.052a10.652 10.652 0 0 0-2.694-1.565A10.79 10.79 0 0 0 23.053.5c-1.384 0-2.738.26-4.016.768a10.645 10.645 0 0 0-3.534 2.306L5.33 13.58c5.33-5.241 7.541.588 7.541.588h.003Z"/><path fill="#8A9DAD" d="M0 18.822c2.247 2.209 5.893 2.209 8.14 0l4.731-4.653S10.66 8.34 5.33 13.58L0 18.82Z"/></svg>