<svg width="21" height="20" viewBox="0 0 21 20" fill="none" xmlns="http://www.w3.org/2000/svg">
<g id="credit-card-x">
<path id="Icon" d="M14.5 13.3333L18.6667 17.5M18.6667 13.3333L14.5 17.5M19.0834 8.33329H2.41669M19.0834 9.99996V6.83329C19.0834 5.89987 19.0834 5.43316 18.9017 5.07664C18.7419 4.76304 18.4869 4.50807 18.1733 4.34828C17.8168 4.16663 17.3501 4.16663 16.4167 4.16663H5.08335C4.14993 4.16663 3.68322 4.16663 3.3267 4.34828C3.0131 4.50807 2.75813 4.76304 2.59834 5.07664C2.41669 5.43316 2.41669 5.89987 2.41669 6.83329V13.1666C2.41669 14.1 2.41669 14.5668 2.59834 14.9233C2.75813 15.2369 3.0131 15.4918 3.3267 15.6516C3.68322 15.8333 4.14993 15.8333 5.08335 15.8333H10.75" stroke="white" stroke-width="1.66667" stroke-linecap="round" stroke-linejoin="round"/>
</g>
</svg>
