<svg width="21" height="20" viewBox="0 0 21 20" fill="none" xmlns="http://www.w3.org/2000/svg">
<g id="credit-card-x">
<path id="Icon" d="M14.25 13.3333L18.4166 17.5M18.4166 13.3333L14.25 17.5M18.8333 8.33329H2.16663M18.8333 9.99996V6.83329C18.8333 5.89987 18.8333 5.43316 18.6516 5.07664C18.4918 4.76304 18.2369 4.50807 17.9233 4.34828C17.5668 4.16663 17.1 4.16663 16.1666 4.16663H4.83329C3.89987 4.16663 3.43316 4.16663 3.07664 4.34828C2.76304 4.50807 2.50807 4.76304 2.34828 5.07664C2.16663 5.43316 2.16663 5.89987 2.16663 6.83329V13.1666C2.16663 14.1 2.16663 14.5668 2.34828 14.9233C2.50807 15.2369 2.76304 15.4918 3.07664 15.6516C3.43316 15.8333 3.89987 15.8333 4.83329 15.8333H10.5" stroke="#D92D20" stroke-width="1.66667" stroke-linecap="round" stroke-linejoin="round"/>
</g>
</svg>
